<?xml version="1.0" encoding="UTF-8" standalone="no"?>
<svg xmlns:dc="http://purl.org/dc/elements/1.1/"
  xmlns:cc="http://creativecommons.org/ns#"
  xmlns:rdf="http://www.w3.org/1999/02/22-rdf-syntax-ns#"
  xmlns:svg="http://www.w3.org/2000/svg"
  xmlns="http://www.w3.org/2000/svg" class="_2yqvn" preserveAspectRatio="xMinYMin meet" width="100%" height="100%" viewBox="0 0 200 100" version="1.1" id="svg94">
  <metadata id="metadata100">
    <rdf:RDF>
      <cc:Work rdf:about="">
        <dc:format>image/svg+xml</dc:format>
        <dc:type rdf:resource="http://purl.org/dc/dcmitype/StillImage" />
        <dc:title></dc:title>
      </cc:Work>
    </rdf:RDF>
  </metadata>
  <defs id="defs98" />
  <rect fill="#545454" width="70" height="100" id="rect82" />
  <path d="M61 9L9 9 9 91 61 91 61 76 24 76 24 57 61 57 61 42 24 42 24 24 61 24 61 9Z" fill="#FFF" id="path84" />
  <rect fill="#c14232" x="78" width="122" height="100" id="rect86" />
  <path d="M160 32L140 61 160 61 160 32ZM130.6 48.3C130.9 47.8 131.2 47.2 131.5 46.7 132.7 44 133.6 41.1 133.9 38.1 134 37.2 134 36.3 134 35.4 134 21 122.3 9.3 107.7 9 107.1 9 104.8 9 104.8 9L88 9 88 24 106 24C111.6 24.7 115.4 28.1 116.3 33.6 117.3 39.9 114.7 45.1 105.1 56 105.1 56 103.2 58.1 100.5 61.2 96.8 65.4 91.6 71.4 88 76L88 91 161 91 161 76 109.3 76C115.1 68.3 127.7 53.5 130.6 48.3Z" fill="#FFF" id="path88" />
  <rect fill="#FFF" x="175" y="76" width="15" height="15" id="rect90" />
  <rect fill="#FFF" x="175" y="9" width="15" height="52" id="rect92" />
</svg>
