<svg xmlns="http://www.w3.org/2000/svg"
  xmlns:xlink="http://www.w3.org/1999/xlink" width="154px" height="28px" viewBox="0 0 154 28" version="1.1">
  <!-- Generator: Sketch 49.2 (51160) - http://www.bohemiancoding.com/sketch -->
  <title>Schibsted_Logotype_White</title>
  <desc>Created with Sketch.</desc>
  <defs/>
  <g id="x_Styleguide" stroke="none" stroke-width="1" fill="none" fill-rule="evenodd">
    <g id="Logotype" transform="translate(-1371.000000, -467.000000)" fill="#FFFFFF">
      <g id="Schibsted_Logotype_White" transform="translate(1371.000000, 467.000000)">
        <path d="M16.9578488,15.0025779 C16.8516548,14.7879425 16.7038823,14.4775077 16.4734207,14.1866448 C16.3234007,13.9973873 16.1123237,13.8676883 15.8577017,13.8676883 C15.4588656,13.8676883 15.1865445,14.1571465 15.1865445,14.5602903 C15.1865445,14.6986983 15.2331799,14.8239023 15.2926448,14.940491 C15.3252334,15.0044508 15.3866649,15.1299358 15.4192535,15.1952067 C15.4403237,15.2374408 15.4394809,15.2796749 15.4032401,15.2992468 C15.3606314,15.3233137 15.3203639,15.3021498 15.2979826,15.2651599 C15.2633338,15.2076615 15.1558288,15.036103 15.1558288,15.036103 C15.0261298,14.8337351 14.8064375,14.6857753 14.5481632,14.6857753 C14.1396816,14.6857753 13.8221298,15.0241164 13.8221298,15.4291331 C13.8221298,15.5452535 13.8506916,15.6543505 13.8982635,15.75221 C13.9173672,15.7915411 13.9541699,15.8707652 13.9733672,15.9098154 C13.9943438,15.9525177 13.994812,15.9954074 13.9580094,16.0178823 C13.9199893,16.0411064 13.8783171,16.0189124 13.8557485,15.9840763 C13.8279358,15.9412803 13.7714676,15.8563438 13.7417819,15.8150462 C13.6194809,15.6441431 13.4235746,15.5409458 13.2039759,15.5409458 C12.8403505,15.5409458 12.5396548,15.814297 12.5396548,16.2314876 C12.5396548,16.3622167 12.5957485,16.5248789 12.6552134,16.6566381 C12.9501967,17.3108455 13.0944107,17.9485712 13.0944107,18.929695 C13.0944107,21.2433003 11.2849926,23.1186448 9.09799599,23.1186448 C6.20107291,23.1186448 5.12349431,20.8897886 4.91691237,20.2268722 C4.89218997,20.1473672 4.8074408,20.1032602 4.72784214,20.1277017 L0.419494314,21.4537217 C0.339333779,21.4783505 0.292979264,21.563287 0.317888963,21.6432602 C1.2691398,24.7101498 4.30334716,27.9255612 9.04948763,27.9255612 C12.9823171,27.9255612 16.2506381,25.2906582 17.449394,21.7344709 C18.1978087,19.5144174 17.9678154,17.0452669 16.9578488,15.0025779" id="Fill-1"/>
        <path d="M8.95902609,14.4003813 C8.72715987,14.4003813 8.54080535,14.2124348 8.54080535,13.9825351 C8.54080535,13.7506689 8.72875184,13.5642207 8.95874515,13.5642207 C9.19061137,13.5642207 9.37696589,13.7522609 9.37696589,13.9821605 C9.37696589,14.2140268 9.1890194,14.4003813 8.95902609,14.4003813" id="Fill-3"/>
        <path d="M8.95902609,10.8169806 C8.72715987,10.8169806 8.54080535,10.6289405 8.54080535,10.3990408 C8.54080535,10.1671746 8.72875184,9.98082007 8.95874515,9.98082007 C9.19061137,9.98082007 9.37696589,10.1687666 9.37696589,10.3987599 C9.37696589,10.6305324 9.1890194,10.8169806 8.95902609,10.8169806" id="Fill-5"/>
        <path d="M8.95902609,12.6086809 C8.72715987,12.6086809 8.54080535,12.4207344 8.54080535,12.1907411 C8.54080535,11.9589686 8.72875184,11.7725204 8.95874515,11.7725204 C9.19061137,11.7725204 9.37696589,11.9605605 9.37696589,12.1904602 C9.37696589,12.4223264 9.1890194,12.6086809 8.95902609,12.6086809" id="Fill-7"/>
        <path d="M12.2536709,14.6297378 C12.1649886,14.537497 12.0443732,14.4385137 11.9392094,14.3656575 C11.69339,14.1955037 11.4672361,14.0547545 11.1961324,13.9299251 C11.0226074,13.8500455 10.9409485,13.8083732 10.7271559,13.7479719 C10.5680522,13.7030221 10.4165338,13.6830756 10.2728816,13.7427278 C10.0484134,13.8358114 9.92433311,14.0741391 9.99662742,14.3331625 C10.0519719,14.5312227 10.2121993,14.6101659 10.3836642,14.6924803 C10.6586074,14.8245204 10.7950488,14.8948482 11.0286943,15.0389686 C11.2108348,15.1512495 11.3660054,15.2547278 11.5510488,15.3868615 C11.7705538,15.5436241 12.0484,15.5692829 12.2444936,15.3957579 C12.4661525,15.1994769 12.469711,14.8545806 12.2536709,14.6297378" id="Fill-9"/>
        <path d="M13.7492174,13.5837739 C13.4682809,13.2967505 13.1504482,13.0492455 12.8435719,12.8917338 C12.7414047,12.8392923 12.6653645,12.8015532 12.5311706,12.7701819 C12.3331104,12.7236401 12.1261538,12.7843224 11.9970167,12.940804 C11.8568294,13.1107706 11.8425017,13.3431987 11.9539398,13.533299 C12.0472107,13.69259 12.1699799,13.771814 12.3143813,13.876697 C12.5309833,14.0340214 12.6812843,14.1534194 12.8836522,14.3241351 C13.0152241,14.435105 13.1269431,14.5552522 13.3078662,14.5798809 C13.5422609,14.6120013 13.7768428,14.4889512 13.883786,14.2779679 C13.9997191,14.049192 13.9284548,13.7669445 13.7492174,13.5837739" id="Fill-11"/>
        <path d="M11.1300187,12.0593753 C11.003691,12.0052482 10.8992763,11.9621712 10.7186341,11.9159104 C10.585002,11.8817298 10.4254301,11.8621579 10.2872094,11.8945592 C9.97387157,11.9680709 9.82534983,12.3450876 10.0047746,12.6128201 C10.0774435,12.7213552 10.1727746,12.7685525 10.3049084,12.8153753 C10.411196,12.8530207 10.4898582,12.8813953 10.6168415,12.9279371 C10.7106742,12.9623987 10.8190221,13.0052883 10.904895,13.0217699 C11.0597846,13.0513619 11.2226341,13.0022916 11.3359452,12.8929137 C11.6022729,12.6356696 11.5128415,12.2232548 11.1300187,12.0593753" id="Fill-13"/>
        <path d="M10.696,10.1531839 C10.6268896,10.1339866 10.5391438,10.1149766 10.4538328,10.1079532 C10.3456722,10.0991505 10.2235585,10.1138528 10.1255117,10.1800602 C9.93344482,10.3096656 9.86854849,10.5718729 9.9793311,10.7757391 C10.0330836,10.8748161 10.1235452,10.9520736 10.2299264,10.9891572 C10.3270368,11.0231505 10.439505,11.0591104 10.5420468,11.0708161 C10.7698863,11.0966622 10.986301,10.9474849 11.0437057,10.7258261 C11.1102876,10.4688629 10.9519331,10.2244482 10.696,10.1531839" id="Fill-15"/>
        <path d="M12.9316923,10.9039492 C12.8100468,10.82819 12.7023545,10.7710662 12.5678796,10.7203104 C12.4205753,10.6646849 12.2781405,10.6232936 12.1368294,10.6138355 C11.8039197,10.5915478 11.5311304,10.8985177 11.5905953,11.2264642 C11.6195318,11.3861298 11.7251639,11.5258488 11.8701271,11.5984241 C11.9845619,11.6558288 12.0719331,11.6995612 12.1956388,11.7623037 C12.3162542,11.8234542 12.4420201,11.8986515 12.573311,11.9338622 C12.7332575,11.9767518 12.9071572,11.9412602 13.0378863,11.8399358 C13.3490702,11.5985177 13.2839866,11.1232669 12.9316923,10.9039492" id="Fill-17"/>
        <path d="M15.3053806,12.6475906 C15.1797084,12.4932629 15.0546916,12.3657177 14.9204977,12.248099 C14.7774074,12.1227077 14.6797351,12.0432027 14.5095813,11.9378515 C14.3627452,11.8469217 14.1924977,11.7984134 14.0163505,11.8316575 C13.8365512,11.8655572 13.6830662,11.9936642 13.6169525,12.1641926 C13.5432535,12.3541057 13.5865177,12.5749217 13.7258622,12.7233498 C13.8284977,12.8325405 13.9220495,12.9048348 14.0347987,13.0043799 C14.1763906,13.1293967 14.311802,13.2523532 14.4441231,13.387109 C14.5633338,13.5085672 14.6932201,13.6019318 14.8716147,13.6085806 C15.0845645,13.6163532 15.2874007,13.4963933 15.3832,13.3061057 C15.4889258,13.0960589 15.4684174,12.847992 15.3053806,12.6475906" id="Fill-19"/>
        <path d="M0.959838127,12.9620428 C1.06603211,13.1766783 1.21380468,13.487113 1.44426622,13.7779759 C1.59428629,13.9673271 1.80536321,14.0969324 2.05998528,14.0969324 C2.4588214,14.0969324 2.73114247,13.8075679 2.73114247,13.4044241 C2.73114247,13.2660161 2.68450702,13.140812 2.62504214,13.0241298 C2.59245351,12.9602635 2.53102207,12.8346849 2.49843344,12.7695077 C2.47736321,12.7272736 2.47820602,12.6849458 2.51444682,12.6653739 C2.55705552,12.641307 2.59732308,12.6624709 2.61970435,12.6995545 C2.65435318,12.7569592 2.76185819,12.9285177 2.76185819,12.9285177 C2.89155719,13.1308856 3.1112495,13.2788455 3.36952375,13.2788455 C3.77800535,13.2788455 4.09555719,12.9405043 4.09555719,12.5355813 C4.09555719,12.4193672 4.06699532,12.3102702 4.01942341,12.2124107 C4.00031973,12.1731732 3.96351706,12.0939492 3.94431973,12.0548054 C3.92334314,12.0121967 3.92287492,11.9692134 3.95967759,11.9468321 C3.99769766,11.9235144 4.0393699,11.945802 4.06193846,11.9805445 C4.08975117,12.0233405 4.1462194,12.1082769 4.17590502,12.1496682 C4.29820602,12.3205712 4.49411237,12.4236749 4.71371104,12.4236749 C5.07733645,12.4236749 5.37803211,12.1503237 5.37803211,11.7331331 C5.37803211,11.6024977 5.32193846,11.4398355 5.26247358,11.3079826 C4.96739666,10.6537753 4.82327625,10.0161431 4.82327625,9.03492575 C4.82327625,6.72141405 6.63269431,4.84606957 8.81969097,4.84606957 C11.716614,4.84606957 12.7941926,7.07483211 13.0007746,7.73774849 C13.025497,7.81725351 13.1102462,7.86136054 13.1898448,7.83691906 L17.4981926,6.51099264 C17.5783532,6.48636388 17.6247077,6.40142742 17.599798,6.32145418 C16.6485472,3.2544709 13.6143398,0.0390595318 8.86819933,0.0390595318 C4.9353699,0.0390595318 1.66704883,2.67396254 0.468292977,6.23014983 C-0.280121739,8.45029699 -0.0501284281,10.9193538 0.959838127,12.9620428" id="Fill-21"/>
        <path d="M8.95866087,17.1477431 C9.19052709,17.1477431 9.37688161,17.3356896 9.37688161,17.5656829 C9.37688161,17.7974555 9.18884147,17.9839037 8.95894181,17.9839037 C8.72707559,17.9839037 8.54072107,17.7959572 8.54072107,17.5659639 C8.54072107,17.3340977 8.72866756,17.1477431 8.95866087,17.1477431" id="Fill-23"/>
        <path d="M8.95866087,15.3559492 C9.19052709,15.3559492 9.37688161,15.5439893 9.37688161,15.773889 C9.37688161,16.0057552 9.18884147,16.1922033 8.95894181,16.1922033 C8.72707559,16.1922033 8.54072107,16.0041632 8.54072107,15.7742635 C8.54072107,15.5423037 8.72866756,15.3559492 8.95866087,15.3559492" id="Fill-25"/>
        <path d="M5.66401605,13.3349298 C5.75269833,13.4271706 5.87331371,13.5261538 5.97847759,13.59901 C6.22429699,13.7691639 6.45045084,13.909913 6.72155452,14.0346488 C6.8950796,14.1146221 6.97673846,14.1562943 7.1905311,14.2166957 C7.34963478,14.2616455 7.50115318,14.281592 7.64480535,14.2219398 C7.86927358,14.1288562 7.99335385,13.8905284 7.92105953,13.631505 C7.86571505,13.4334448 7.70548763,13.3545017 7.53402274,13.2721873 C7.2590796,13.1400535 7.12263813,13.0698194 6.88899264,12.925699 C6.70685217,12.8133244 6.55168161,12.7099398 6.36663813,12.577806 C6.14713311,12.4210435 5.86928696,12.3953846 5.67319331,12.5689097 C5.45153445,12.7651906 5.44797592,13.1099933 5.66401605,13.3349298" id="Fill-27"/>
        <path d="M4.16847893,14.380903 C4.44941538,14.6679264 4.76724816,14.9153378 5.07412441,15.0729431 C5.17629164,15.125291 5.25233177,15.1631237 5.38652575,15.194495 C5.58458595,15.2410368 5.79154247,15.1803545 5.9206796,15.0237793 C6.06086689,14.8539064 6.07519465,14.6214783 5.96375652,14.4312843 C5.87048562,14.272087 5.74771639,14.1928629 5.60331505,14.0879799 C5.38671304,13.9306555 5.23641204,13.8113512 5.03404415,13.6405418 C4.90247224,13.5295719 4.79075318,13.4094247 4.6098301,13.3847023 C4.37543545,13.3526756 4.14085351,13.4757258 4.03391037,13.686709 C3.91797726,13.9154849 3.98924147,14.1977324 4.16847893,14.380903" id="Fill-29"/>
        <path d="M6.78766823,15.9052923 C6.91399599,15.9593258 7.0184107,16.0024963 7.19905284,16.0486635 C7.33268495,16.0828441 7.49225686,16.1025097 7.63047759,16.0701084 C7.94372174,15.9965967 8.09233712,15.6195799 7.91291237,15.3519411 C7.84014983,15.2433124 7.74491237,15.1961151 7.6127786,15.1492923 C7.50649097,15.1115532 7.42782876,15.0832722 7.30084548,15.0367304 C7.20701271,15.0022689 7.09866488,14.9592856 7.01279197,14.9429913 C6.85790234,14.913212 6.69505284,14.9623759 6.58174181,15.0717538 C6.31541405,15.328998 6.40484548,15.7413191 6.78766823,15.9052923" id="Fill-31"/>
        <path d="M7.2216495,17.811493 C7.29075987,17.8306903 7.37850569,17.8497003 7.46391037,17.8566301 C7.57197726,17.8655264 7.69418462,17.8509177 7.79223144,17.7847104 C7.98420468,17.6550114 8.049101,17.392804 7.93841204,17.1889378 C7.88465953,17.0898609 7.79419799,17.012697 7.68781672,16.9754261 C7.59061271,16.9415264 7.47823813,16.9055666 7.37569632,16.8938609 C7.14776321,16.8680147 6.93134849,17.017192 6.87394381,17.2388508 C6.80745552,17.4959077 6.96571639,17.7402288 7.2216495,17.811493" id="Fill-33"/>
        <path d="M4.98595719,17.0606809 C5.10760268,17.1364401 5.21529498,17.1935639 5.34986355,17.2444134 C5.49707425,17.2999452 5.63950903,17.3413365 5.78082007,17.3508883 C6.11382341,17.3731759 6.38661271,17.066206 6.32705418,16.7381659 C6.29811773,16.578594 6.19257926,16.4387813 6.04761605,16.366206 C5.93318127,16.308895 5.84571639,16.2651625 5.7220107,16.2024201 C5.60139532,16.1412696 5.47562943,16.0660722 5.34443211,16.0308615 C5.18448562,15.9879719 5.01058595,16.0233699 4.87985686,16.124788 C4.56857926,16.366206 4.63366288,16.8414569 4.98595719,17.0606809" id="Fill-35"/>
        <path d="M2.61230635,15.3170769 C2.7379786,15.4714047 2.86299532,15.5989498 2.9971893,15.7165686 C3.1402796,15.8419599 3.23795184,15.9213712 3.40810569,16.0268161 C3.55494181,16.1178395 3.72509565,16.1661605 3.90133645,16.13301 C4.08113579,16.0991104 4.23462074,15.9709097 4.30073445,15.8004749 C4.37443344,15.6105619 4.33116923,15.3897458 4.19182475,15.2413177 C4.0891893,15.1320334 3.99563746,15.0598328 3.88288829,14.960194 C3.74129632,14.8352709 3.60588495,14.7123144 3.47356388,14.5776522 C3.35435318,14.4561003 3.22446689,14.3627358 3.04607224,14.356087 C2.83312241,14.3482207 2.63028629,14.4682742 2.53448696,14.6586555 C2.4287612,14.8686087 2.44917592,15.1166756 2.61230635,15.3170769" id="Fill-37"/>
        <path d="M49.5047773,9.61202542 C47.8519344,9.61202542 45.9531786,10.1745538 44.8279344,11.5107813 L44.8279344,2.06101538 C44.8279344,1.97813913 44.760697,1.91099532 44.6778207,1.91099532 L40.3011117,1.91099532 C40.2182355,1.91099532 40.150998,1.97813913 40.150998,2.06101538 L40.150998,27.219905 C40.150998,27.3028749 40.2182355,27.3700187 40.3011117,27.3700187 L44.6778207,27.3700187 C44.760697,27.3700187 44.8279344,27.3028749 44.8279344,27.219905 L44.8279344,17.2075171 C44.8098609,15.2765472 45.9245231,13.7582729 48.0630114,13.7594903 C50.3134997,13.7607077 51.2629712,15.343691 51.2629712,17.2777512 L51.2629712,27.219905 C51.2629712,27.3028749 51.3302087,27.3700187 51.4129913,27.3700187 L55.789794,27.3700187 C55.8726702,27.3700187 55.9399077,27.3028749 55.9399077,27.219905 L55.9399077,16.4690288 C55.9399077,12.6713298 53.900309,9.61202542 49.5047773,9.61202542" id="Fill-39"/>
        <path d="M62.3093833,1.48910368 C60.7168482,1.47674247 59.4035639,2.78244147 59.4035639,4.40756522 C59.4035639,5.95486957 60.7045806,7.25597993 62.287002,7.25597993 C64.0307746,7.25597993 65.3659719,5.74397993 65.1469351,4.04131773 C64.9635773,2.61528428 63.7471224,1.50024749 62.3093833,1.48910368" id="Fill-41"/>
        <path d="M64.4930836,10.069006 L60.1162809,10.069006 C60.0334047,10.069006 59.9662609,10.1361498 59.9662609,10.2190261 L59.9662609,27.2198957 C59.9662609,27.3028656 60.0334047,27.3700094 60.1162809,27.3700094 L64.4930836,27.3700094 C64.5759599,27.3700094 64.6431037,27.3028656 64.6431037,27.2198957 L64.6431037,10.2190261 C64.6431037,10.1361498 64.5759599,10.069006 64.4930836,10.069006" id="Fill-43"/>
        <path d="M77.532309,23.6436682 C75.1761886,23.6436682 73.1690849,21.8139291 73.1690849,18.6843906 C73.1690849,15.5195478 75.1761886,13.760511 77.532309,13.760511 C79.9234528,13.760511 81.8223023,15.5195478 81.8223023,18.6843906 C81.8223023,21.8492334 79.9234528,23.6436682 77.532309,23.6436682 M78.5168977,9.61201605 C75.9498876,9.61201605 74.0509445,10.7372602 73.2772455,11.9679492 L73.2772455,2.06100602 C73.2772455,1.97812977 73.2101017,1.91098595 73.1272254,1.91098595 L68.8209378,1.91098595 C68.7379679,1.91098595 68.6708241,1.97812977 68.6708241,2.06100602 L68.6708241,27.2198957 C68.6708241,27.3028656 68.7379679,27.3700094 68.8209378,27.3700094 L73.0569913,27.3700094 C73.1398676,27.3700094 73.2070114,27.3028656 73.2070114,27.2198957 L73.2070114,25.2601766 C74.1211786,26.7370595 75.9498876,27.7920696 78.3411251,27.7920696 C83.2639746,27.7920696 86.4991452,23.8886448 86.4991452,18.6492736 C86.4991452,13.5152535 83.5804963,9.61201605 78.5168977,9.61201605" id="Fill-45"/>
        <path d="M114.506459,23.3651946 C114.201643,23.4203518 113.698111,23.4668 113.24084,23.4668 C111.904706,23.4668 111.201241,22.9745057 111.201241,21.4623184 L111.201241,14.2184656 L114.532492,14.2184656 C114.615369,14.2184656 114.682606,14.1512281 114.682606,14.0684455 L114.682606,10.2190542 C114.682606,10.1361779 114.615369,10.0690341 114.532492,10.0690341 L111.201241,10.0690341 L111.201241,5.04982341 C111.201241,4.9670408 111.134098,4.89980334 111.051221,4.89980334 L106.726486,4.89980334 C106.643703,4.89980334 106.576559,4.96685351 106.576466,5.04972977 L106.56991,10.0690341 L103.579997,10.0690341 C103.497215,10.0690341 103.429977,10.1361779 103.429977,10.2190542 L103.429977,14.0684455 C103.429977,14.1512281 103.497215,14.2184656 103.579997,14.2184656 L106.559703,14.2184656 L106.559703,22.2710408 C106.559703,25.6117498 108.669536,27.6163251 112.045362,27.6163251 C113.316974,27.6163251 114.134967,27.4045926 114.583716,27.2336896 C114.643649,27.2108401 114.682606,27.1539037 114.682606,27.0897565 L114.682606,23.5139973 C114.682606,23.4205391 114.598325,23.3485258 114.506459,23.3651946" id="Fill-47"/>
        <path d="M144.885457,23.6436682 C142.424079,23.6436682 140.595464,21.778812 140.595464,18.6843906 C140.595464,15.5899692 142.4945,13.7956281 144.885457,13.7956281 C147.276694,13.7956281 149.194741,15.5546649 149.194741,18.6492736 C149.194741,21.778812 147.276694,23.6436682 144.885457,23.6436682 M153.57351,1.91098595 L149.220119,1.91098595 C149.137243,1.91098595 149.070099,1.97812977 149.070099,2.06100602 L149.070099,11.7920829 C148.577805,10.8778221 147.171343,9.64713311 144.182273,9.64713311 C139.294447,9.64713311 135.883316,13.6206047 135.883316,18.6843906 C135.883316,23.9239492 139.399892,27.7920696 144.322928,27.7920696 C146.643651,27.7920696 148.401938,26.7370595 149.175637,25.3657151 L149.184721,27.2206448 C149.185189,27.3033338 149.252239,27.3700094 149.334835,27.3700094 L153.57351,27.3700094 C153.656387,27.3700094 153.723624,27.3028656 153.723624,27.2198957 L153.723624,24.2404709 L153.723624,2.06100602 C153.723624,1.97812977 153.656387,1.91098595 153.57351,1.91098595" id="Fill-49"/>
        <path d="M121.352365,16.7503866 C121.457716,15.1680589 122.794131,13.3395371 125.220486,13.3395371 C127.892847,13.3395371 129.018091,15.0273097 129.088512,16.7503866 L121.352365,16.7503866 Z M125.150064,9.54165084 C120.719415,9.54165084 116.640218,13.1283666 116.640218,18.6493298 C116.640218,24.4865338 120.824767,27.8974769 125.572124,27.8974769 C129.114827,27.8974769 131.608606,26.1662528 132.851843,23.8613565 C132.893328,23.7841926 132.858586,23.6876441 132.778332,23.6527144 L129.272058,22.129196 C129.204352,22.0996977 129.126532,22.1248883 129.086452,22.1868816 C128.417823,23.2199786 127.314586,23.8887946 125.607241,23.8887946 C123.286332,23.8887946 121.352365,22.2360455 121.246827,19.9504401 L133.484419,19.9504401 C133.562894,19.9504401 133.627977,19.8908816 133.633877,19.8126876 C133.653074,19.5629351 133.695215,19.0253164 133.695215,18.5086742 C133.695215,12.952594 130.495161,9.54165084 125.150064,9.54165084 Z" id="Fill-51"/>
        <path d="M97.2054555,16.8416535 L94.7439839,16.3142421 C93.7945124,16.1382823 93.1615625,15.6603157 93.1615625,14.8163826 C93.1615625,13.831794 94.1461512,13.0933057 95.3770274,13.0933057 C97.0641445,13.0933057 97.8462716,14.0480214 98.124305,14.9630314 C98.1492147,15.0452522 98.2407064,15.0871117 98.3207732,15.0561151 L101.804947,13.7062154 C101.879583,13.6772789 101.919757,13.5949645 101.893817,13.5192054 C101.275757,11.7159679 99.4455492,9.54161338 95.3417231,9.54161338 C91.6142582,9.54161338 88.8714756,12.1086234 88.8714756,15.2031385 C88.8714756,17.629493 90.3835692,19.7013057 93.724091,20.4397003 L96.0098836,20.967299 C97.346111,21.2487037 97.8736161,21.8140415 97.8736161,22.5876468 C97.8736161,23.5020013 97.1352214,24.3108174 95.5879171,24.3108174 C93.6280107,24.3108174 92.609897,23.1417472 92.4395559,21.833707 C92.4282247,21.7461485 92.3455358,21.6904294 92.2594756,21.7093458 L88.5481177,22.5232187 C88.4722649,22.5398876 88.4202916,22.6114328 88.4310609,22.6883157 C88.7082515,24.6726635 90.5363987,27.8975331 95.6230341,27.8975331 C100.159221,27.8975331 102.339476,25.014095 102.339476,22.200891 C102.339476,19.668998 100.616399,17.5449311 97.2054555,16.8416535" id="Fill-53"/>
        <path d="M37.3941967,22.0147425 L33.5644709,20.7380736 C33.4829993,20.7109164 33.3974074,20.7556789 33.3705311,20.8371505 C32.9400428,22.139291 31.7461565,23.6075585 29.4428522,23.6075585 C27.0516147,23.6075585 25.0122033,21.8492709 25.0122033,18.7195452 C25.0122033,15.5901003 27.0164977,13.8669298 29.4076415,13.8669298 C31.3987318,13.8669298 32.48221,14.9541538 33.0166448,16.1734181 C33.048297,16.2456187 33.1287385,16.2824214 33.2032803,16.2567625 L37.1270261,14.9029298 C37.2057819,14.8757726 37.2485779,14.7895251 37.2205779,14.7111438 C36.265113,12.031291 33.6541833,9.54163211 29.302103,9.54163211 C24.2737151,9.54163211 20.3350796,13.3746355 20.3350796,18.7195452 C20.3350796,24.0294314 24.3439492,27.8974582 29.4428522,27.8974582 C33.9758555,27.8974582 36.6702234,25.0373378 37.4920562,22.1984749 C37.5144375,22.121311 37.4704241,22.0401204 37.3941967,22.0147425" id="Fill-55"/>
      </g>
    </g>
  </g>
</svg>